<svg xmlns="http://www.w3.org/2000/svg" width="16.5" height="22" viewBox="0 0 16.5 22">
  <g id="address-icon" transform="translate(-2)">
    <path id="Trazado_6" data-name="Trazado 6" d="M15.978,12.292a26.435,26.435,0,0,1-2.7,4.221,43.3,43.3,0,0,1-3.033,3.534,43.287,43.287,0,0,1-3.033-3.534,26.435,26.435,0,0,1-2.7-4.221A9.513,9.513,0,0,1,3.375,8.25a6.875,6.875,0,0,1,13.75,0,9.533,9.533,0,0,1-1.147,4.043ZM10.25,22S18.5,14.182,18.5,8.25A8.25,8.25,0,1,0,2,8.25C2,14.182,10.25,22,10.25,22Z"/>
    <path id="Trazado_7" data-name="Trazado 7" d="M9,9.667A2.667,2.667,0,1,1,11.667,7,2.667,2.667,0,0,1,9,9.667ZM9,11A4,4,0,1,0,5,7,4,4,0,0,0,9,11Z" transform="translate(0.989 1.589)"/>
  </g>
</svg>
