<svg xmlns="http://www.w3.org/2000/svg" width="22" height="22" viewBox="0 0 22 22">
  <path id="cart-icon" d="M0,1.733A.733.733,0,0,1,.733,1h2.2a.733.733,0,0,1,.711.556l.594,2.377H21.267a.733.733,0,0,1,.719.877l-1.467,7.333a.733.733,0,0,1-.682.588l-13.782.692.421,2.243H19.067a.733.733,0,1,1,0,1.467H5.867a.733.733,0,0,1-.72-.6L2.948,4.824,2.361,2.467H.733A.733.733,0,0,1,0,1.733ZM4.55,5.4l1.232,6.569L19.193,11.3l1.179-5.9ZM7.333,17.133a2.933,2.933,0,1,0,2.933,2.933A2.933,2.933,0,0,0,7.333,17.133Zm10.267,0a2.933,2.933,0,1,0,2.933,2.933A2.933,2.933,0,0,0,17.6,17.133ZM7.333,18.6a1.467,1.467,0,1,1-1.467,1.467A1.467,1.467,0,0,1,7.333,18.6Zm10.267,0a1.467,1.467,0,1,1-1.467,1.467A1.467,1.467,0,0,1,17.6,18.6Z" transform="translate(0 -1)" fill="#ffffff"/>
</svg>
