<svg xmlns="http://www.w3.org/2000/svg" width="25.333" height="19" viewBox="0 0 25.333 19">
  <path id="email-icon" d="M0,5.167A3.167,3.167,0,0,1,3.167,2h19a3.167,3.167,0,0,1,3.167,3.167V17.833A3.167,3.167,0,0,1,22.167,21h-19A3.167,3.167,0,0,1,0,17.833ZM3.167,3.583A1.583,1.583,0,0,0,1.583,5.167V5.51l11.083,6.65L23.75,5.51V5.167a1.583,1.583,0,0,0-1.583-1.583ZM23.75,7.356l-7.533,4.52,7.533,4.554V7.358ZM23.7,18.247,14.679,12.8l-2.012,1.208L10.653,12.8,1.637,18.245a1.583,1.583,0,0,0,1.529,1.172h19A1.583,1.583,0,0,0,23.7,18.247ZM1.583,16.431l7.534-4.554L1.583,7.356v9.073Z" transform="translate(0 -2)"/>
</svg>
