<svg xmlns="http://www.w3.org/2000/svg" xmlns:xlink="http://www.w3.org/1999/xlink" viewBox="0 0 844.44 702.74"><defs><style>.cls-1{isolation:isolate;}.cls-2{fill:url(#linear-gradient);}.cls-3{fill:url(#linear-gradient-2);}.cls-4{fill:url(#New_Gradient_Swatch_3);}.cls-5{fill:url(#New_Gradient_Swatch_3-2);}.cls-6{fill:url(#linear-gradient-3);}.cls-7{fill:url(#New_Gradient_Swatch_3-3);}.cls-8{fill:url(#New_Gradient_Swatch_3-4);}.cls-9{fill:url(#linear-gradient-4);}.cls-10,.cls-19,.cls-20,.cls-21,.cls-22,.cls-23,.cls-24,.cls-25,.cls-26,.cls-27,.cls-28{mix-blend-mode:color-dodge;}.cls-11{fill:url(#linear-gradient-5);}.cls-12{fill:url(#linear-gradient-6);}.cls-13{fill:url(#linear-gradient-7);}.cls-14{fill:url(#linear-gradient-8);}.cls-15{fill:url(#linear-gradient-9);}.cls-16{fill:url(#linear-gradient-10);}.cls-17{fill:url(#linear-gradient-11);}.cls-18{fill:url(#linear-gradient-12);}.cls-19{fill:url(#radial-gradient);}.cls-20{fill:url(#radial-gradient-2);}.cls-21{fill:url(#radial-gradient-3);}.cls-22{fill:url(#radial-gradient-4);}.cls-23{fill:url(#radial-gradient-5);}.cls-24{fill:url(#radial-gradient-6);}.cls-25{fill:url(#radial-gradient-7);}.cls-26{fill:url(#radial-gradient-8);}.cls-27{fill:url(#radial-gradient-9);}.cls-28{fill:url(#radial-gradient-10);}</style><linearGradient id="linear-gradient" x1="-5086.61" y1="2274.68" x2="-4793.92" y2="2274.68" gradientTransform="translate(-4701.48 2685.35) rotate(180)" gradientUnits="userSpaceOnUse"><stop offset="0" stop-color="#d70fe0"/><stop offset="0.31" stop-color="#8c0fe0"/><stop offset="0.46" stop-color="#6235ec"/><stop offset="0.61" stop-color="#3062fb"/><stop offset="0.68" stop-color="#3166fb"/><stop offset="0.75" stop-color="#3272f9"/><stop offset="0.82" stop-color="#3586f8"/><stop offset="0.89" stop-color="#38a1f5"/><stop offset="0.96" stop-color="#3dc5f1"/><stop offset="1" stop-color="#40deef"/></linearGradient><linearGradient id="linear-gradient-2" x1="-5275.6" y1="2538.57" x2="-4793.92" y2="2538.57" gradientTransform="translate(-4701.48 2685.35) rotate(180)" gradientUnits="userSpaceOnUse"><stop offset="0" stop-color="#a80fe0"/><stop offset="0.23" stop-color="#7e2ce9"/><stop offset="0.61" stop-color="#3062fb"/><stop offset="0.68" stop-color="#3166fb"/><stop offset="0.75" stop-color="#3272f9"/><stop offset="0.82" stop-color="#3586f8"/><stop offset="0.89" stop-color="#38a1f5"/><stop offset="0.96" stop-color="#3dc5f1"/><stop offset="1" stop-color="#40deef"/></linearGradient><linearGradient id="New_Gradient_Swatch_3" x1="-5390.48" y1="2132.61" x2="-5300.69" y2="2132.61" gradientTransform="translate(-4701.48 2685.35) rotate(180)" gradientUnits="userSpaceOnUse"><stop offset="0" stop-color="#8c0fe0"/><stop offset="0.29" stop-color="#6235ec"/><stop offset="0.61" stop-color="#3062fb"/><stop offset="0.68" stop-color="#3166fb"/><stop offset="0.75" stop-color="#3272f9"/><stop offset="0.82" stop-color="#3586f8"/><stop offset="0.89" stop-color="#38a1f5"/><stop offset="0.96" stop-color="#3dc5f1"/><stop offset="1" stop-color="#40deef"/></linearGradient><linearGradient id="New_Gradient_Swatch_3-2" x1="-4937.38" y1="2132.51" x2="-4847.6" y2="2132.51" xlink:href="#New_Gradient_Swatch_3"/><linearGradient id="linear-gradient-3" x1="691.13" y1="61.45" x2="540.13" y2="183.54" gradientUnits="userSpaceOnUse"><stop offset="0.18" stop-color="#8c0fe0"/><stop offset="0.39" stop-color="#6235ec"/><stop offset="0.61" stop-color="#3062fb"/><stop offset="0.68" stop-color="#3166fb"/><stop offset="0.75" stop-color="#3272f9"/><stop offset="0.82" stop-color="#3586f8"/><stop offset="0.89" stop-color="#38a1f5"/><stop offset="0.96" stop-color="#3dc5f1"/><stop offset="1" stop-color="#40deef"/></linearGradient><linearGradient id="New_Gradient_Swatch_3-3" x1="-4937.43" y1="2585.92" x2="-4847.68" y2="2585.92" xlink:href="#New_Gradient_Swatch_3"/><linearGradient id="New_Gradient_Swatch_3-4" x1="-5443.98" y1="2445.73" x2="-5151.43" y2="2445.73" xlink:href="#New_Gradient_Swatch_3"/><linearGradient id="linear-gradient-4" x1="704.55" y1="185.53" x2="354.35" y2="561.43" gradientUnits="userSpaceOnUse"><stop offset="0.18" stop-color="#ac0fe0"/><stop offset="0.33" stop-color="#822be9"/><stop offset="0.58" stop-color="#3062fb"/><stop offset="0.66" stop-color="#3166fb"/><stop offset="0.73" stop-color="#3272f9"/><stop offset="0.81" stop-color="#3586f8"/><stop offset="0.88" stop-color="#38a1f5"/><stop offset="0.95" stop-color="#3dc5f1"/><stop offset="1" stop-color="#40deef"/></linearGradient><linearGradient id="linear-gradient-5" x1="91.62" y1="410.66" x2="385.95" y2="410.66" gradientUnits="userSpaceOnUse"><stop offset="0" stop-color="#fff"/><stop offset="0.01" stop-color="#fafafa"/><stop offset="0.13" stop-color="silver"/><stop offset="0.25" stop-color="#8d8d8d"/><stop offset="0.37" stop-color="#626262"/><stop offset="0.5" stop-color="#3e3e3e"/><stop offset="0.62" stop-color="#232323"/><stop offset="0.74" stop-color="#0f0f0f"/><stop offset="0.87" stop-color="#040404"/><stop offset="1"/></linearGradient><linearGradient id="linear-gradient-6" x1="91.64" y1="146.77" x2="574.94" y2="146.77" xlink:href="#linear-gradient-5"/><linearGradient id="linear-gradient-7" x1="598.4" y1="552.73" x2="689.83" y2="552.73" xlink:href="#linear-gradient-5"/><linearGradient id="linear-gradient-8" x1="145.33" y1="552.83" x2="236.72" y2="552.83" xlink:href="#linear-gradient-5"/><linearGradient id="linear-gradient-9" x1="598.34" y1="99.51" x2="689.72" y2="99.51" xlink:href="#linear-gradient-5"/><linearGradient id="linear-gradient-10" x1="145.4" y1="99.41" x2="236.78" y2="99.41" xlink:href="#linear-gradient-5"/><linearGradient id="linear-gradient-11" x1="449.15" y1="239.6" x2="743.33" y2="239.6" xlink:href="#linear-gradient-5"/><linearGradient id="linear-gradient-12" x1="259.4" y1="504.07" x2="743.47" y2="504.07" xlink:href="#linear-gradient-5"/><radialGradient id="radial-gradient" cx="2763.49" cy="2617.11" r="23.83" gradientTransform="translate(1016.64 -10054.18) rotate(48.13) scale(2.71)" gradientUnits="userSpaceOnUse"><stop offset="0" stop-color="#fff"/><stop offset="1" stop-opacity="0"/></radialGradient><radialGradient id="radial-gradient-2" cx="2759.05" cy="2577.93" r="15.18" gradientTransform="translate(-1702.98 -9768.7) rotate(32.89) scale(2.71)" xlink:href="#radial-gradient"/><radialGradient id="radial-gradient-3" cx="2776.06" cy="2587.96" r="15.18" gradientTransform="translate(8483.77 -6626.99) rotate(95.42) scale(2.71)" xlink:href="#radial-gradient"/><radialGradient id="radial-gradient-4" cx="2736.59" cy="2549.81" r="9.57" gradientTransform="matrix(2.19, 1.59, -1.59, 2.19, -1160.07, -9889.93)" xlink:href="#radial-gradient"/><radialGradient id="radial-gradient-5" cx="2382.63" cy="1918.63" r="21.97" gradientTransform="matrix(0, 2.71, -1.27, 0, 2744.16, -5775.77)" xlink:href="#radial-gradient"/><radialGradient id="radial-gradient-6" cx="2577.33" cy="2140.95" r="9.62" gradientTransform="translate(4301.37 -7412.04) rotate(77.15) scale(2.71)" xlink:href="#radial-gradient"/><radialGradient id="radial-gradient-7" cx="2596.28" cy="2124.7" r="9.62" gradientTransform="translate(5942.26 -6444.38) rotate(89.49) scale(2.71)" xlink:href="#radial-gradient"/><radialGradient id="radial-gradient-8" cx="2561.64" cy="2111.22" r="6.07" gradientTransform="matrix(2.5, 1.04, -1.04, 2.5, -4054.1, -7334.95)" xlink:href="#radial-gradient"/><radialGradient id="radial-gradient-9" cx="2507.45" cy="2056.71" r="6.07" gradientTransform="translate(3914.37 -7413.78) rotate(77.02) scale(2.71)" xlink:href="#radial-gradient"/><radialGradient id="radial-gradient-10" cx="2543.83" cy="1984.24" r="6.07" gradientTransform="translate(-6767.5 -5117.54) scale(2.71)" xlink:href="#radial-gradient"/></defs><g class="cls-1"><g id="Capa_2" data-name="Capa 2"><g id="graphic_element" data-name="graphic element"><path class="cls-2" d="M261.12,229.94a53.31,53.31,0,0,0-.21,5.51c.39,25.67-9.63,52.1-28.17,70.24-9,8.85-17.94,17.68-26.67,26.81a82.84,82.84,0,0,1-67.49,24.65c-1.39-.14-2.79-.22-4.19-.25-24-.55-46.89,17.78-41,43.32,5.8,25.17,13.22,54.15,56.56,53.45a28,28,0,0,1,4,.7c26.54,3.43,51.18,17.1,69.77,36.09q14.25,14.87,28.05,30.16c17.33,19.56,30.87,43.74,35.4,69.65.27,1.54.62,3.13,1.06,4.73,3.67,13.46,12.09,25.48,21.91,35.21,9.2,9.12,20.82,17.4,33.59,20.25,25.6,5.71,42.13-17.52,41.37-40.67-1-29.54-26.7-54.34-55.73-58l-1-.13c-24.65-2.72-46.68-16.25-63.42-34.11-13.13-14.31-25.9-28.92-39.4-42.89-16.67-17.44-30.86-39.23-33.69-63.71l0-.3c0-.11,0-.21,0-.31-2.83-22.71,4.89-44.21,20.44-61.11,12.18-12.92,24.1-26.06,36.83-38.44,18-17.61,42.78-26.93,67.55-27.87l1.17,0c31.81-1.58,60.71-26.56,61.2-59.49a52.61,52.61,0,0,0-56.66-53.21C291.6,172.42,264,199.24,261.12,229.94Z"/><path class="cls-3" d="M513.76,170.23a56.64,56.64,0,0,0-5.82-.24c-26.86.29-55.63-9.31-74.57-29.07-8.86-9.19-17.62-18.46-26.48-27.63-17.06-18.07-25.7-42.35-22.25-67.12.18-1.35.32-2.72.39-4.08.9-16.32-7.75-34.18-24.08-39.46-18.49-6-44.63,3.65-58.38,15.87-8,7.11-11.32,17.16-14.21,27.5-2.64,9.46-1.07,18.55-4,28.15-6.27,20.75-18.08,40.05-32.7,56q-14,15.23-28.28,30.11C205,179,180.55,192.57,154.5,196.6c-1.57.25-3.15.78-4.82,1-35.06,4.58-50.62,29.53-56.34,54.83C91,262.91,93.25,274,101,281.8c8.63,8.69,21.2,11.51,32.94,10.85,28.59-1.6,53.93-25.53,58.08-54.06,0-.33.1-.66.14-1,3-24.14,17.1-45.74,33.77-62.85,13.65-13.83,26.54-28.35,39.76-42.58C282.3,114.61,304,101,328.41,98.27l.31,0,.31,0c22.84-2.59,44.53,5.12,61,21.33,12.56,12.7,24.78,25.74,37.42,38.35A96.86,96.86,0,0,1,456,223.81l0,1.1c1.28,32.89,30.7,57.66,62.7,58.38,30,.66,57.58-21.21,55.31-52.79C571.78,199.71,544.12,173.06,513.76,170.23Z"/><path class="cls-4" d="M603.32,573.49c10.37-26.7,34.74-51.11,61.47-61.42,5.09-2,18-7.28,22.9-1.64,4.5,5.21-3.83,14.85-6.73,18.66-8.58,11.26-18.92,21.47-29,31.52s-20.28,20.45-31.56,29c-3.86,2.94-13.44,11.15-18.68,6.55C596.14,591.27,601.33,578.63,603.32,573.49Z"/><path class="cls-5" d="M154.16,529.09c-2.82-3.7-11.24-13.43-6.74-18.59,4.88-5.61,17.74-.24,22.89,1.77,26.75,10.44,51,35,61.47,61.7,2,5.1,7.21,17.64,1.6,22.4-5.25,4.46-14.92-3.87-18.68-6.73-11.27-8.58-21.49-18.93-31.56-29S162.74,540.36,154.16,529.09Z"/><path class="cls-6" d="M603.22,78.42c-2-5-7.13-17.5-1.53-22.26,5.28-4.49,14.86,3.73,18.72,6.67,11.27,8.58,21.47,18.94,31.54,29s20.43,20.28,29,31.55c2.83,3.72,11.23,13.43,6.59,18.48-5,5.46-18-.1-23-2.13C638.07,129.14,613.65,105,603.22,78.42Z"/><path class="cls-7" d="M154.16,123.38c8.58-11.28,18.93-21.51,29-31.58s20.27-20.39,31.53-29C218.46,60,228.13,51.64,233.42,56c5.62,4.61.42,17-1.54,22-10.49,26.59-34.83,50.88-61.3,61.59-5.13,2.08-18,7.69-23,2.26C142.93,136.79,151.4,127,154.16,123.38Z"/><path class="cls-8" d="M505.47,98.44l1.13.14c26.23,2.94,49.88,17.7,67.74,36.61,10.58,11.44,21,23,31.95,34.09,18,18.45,33.35,41.47,36.62,67.59,0,.11,0,.21,0,.32l.15,1.08c3.44,24.31-4.68,47.54-22.44,64.76-8.87,8.37-17.91,16.58-26.34,25.4-19.34,20.32-46.75,30.51-74.39,30.34h-1.38c-33.35.31-62,27.37-62.63,61-.6,31.84,24.5,60.44,57.4,58.18,31.9-2.19,59.19-31.3,61.41-62.83,0-.43.06-.86.08-1.29,1.25-26.66,11.46-54.43,30.48-73.56,8.86-8.85,17.77-17.61,27-26.11C650.75,297.51,675,290,699.71,292.31l1,.09c11.82.8,24.47-2,33.22-10.73,7.87-7.82,9.89-18.71,7.81-29.41-7-36.17-24.18-50.09-56.94-54.89-.65-.09-1.27-.29-1.9-.42-27.1-5.6-52.13-19.75-71.56-39.4Q598,143.84,585,129.82c-17.9-19.59-32.23-43.93-37.82-70-.19-.88-.41-1.78-.66-2.68C540,32.73,516.38,7.5,491.37,2,466.17-3.51,449.2,18.28,450,41.63,451,70.67,477.23,94.68,505.47,98.44Z"/><path class="cls-9" d="M320.78,476.82a55.21,55.21,0,0,0,5.9.17c27.72-.8,56.1,10.1,75.06,30.62,8.8,9.47,17.43,19.09,26.2,28.59,17.1,18.9,25.71,43.46,22.39,68.89-.18,1.38-.32,2.78-.38,4.16-1,23.59,15.7,47,41.59,41.17,13-2.9,29.92-7.84,39.14-17.2,9.77-9.91,12.84-25.74,16.33-39.32.34-1.34.63-2.66.86-3.95,4.57-26,18.36-50.68,35.86-70.19q13.82-15.12,28.06-29.85c18.57-18.79,42.81-32.18,69.17-35.55,1.58-.2,3.15-.85,4.83-.86,33.38-.2,50.53-28.21,56-53.45,5.58-25.83-16.67-43.13-40.43-43.21-29.11-.1-53.89,24.18-57.92,52.75,0,.34-.09.68-.13,1-3.08,24.66-17,46.5-33.91,64.17-13.49,14-26.35,28.45-39.41,42.81-16.53,17.78-38.49,31.84-63.07,34.46l-.31,0-.31,0c-23.14,2.67-45.1-5.37-61.6-22.08-12.69-13.25-24.82-27-37.14-40.57A109.78,109.78,0,0,1,379,419c0-.38,0-.77,0-1.16-1.28-33.37-29.65-60-62.9-60-31.27,0-57.84,24.61-55.73,56.64C262.37,445.79,289.4,474.2,320.78,476.82Z"/><g class="cls-10"><path class="cls-11" d="M351.47,652.14a36.27,36.27,0,0,1-7.9-.9c-14.23-3.18-26.34-12.88-34-20.46-11.14-11-18.78-23.34-22.12-35.58-.43-1.59-.79-3.21-1.07-4.8C281.08,560,264.31,536,251.18,521.15c-9.41-10.41-18.84-20.55-28-30.13-19.43-19.86-44-32.59-69.28-35.86a14.59,14.59,0,0,1-1.65-.33,8.26,8.26,0,0,0-2.27-.36c-19.64.32-33.71-5.35-43-17.34C98.56,426.34,95.25,412,92.59,400.39c-3.1-13.48,1.84-23.18,6.54-28.94,8-9.8,21.5-15.67,35.28-15.37,1.54,0,2.93.12,4.25.25a82.06,82.06,0,0,0,66.84-24.41c9-9.37,18.37-18.64,26.68-26.82,17.88-17.49,28.32-43.53,27.92-69.65a55.07,55.07,0,0,1,.22-5.6c2.9-31.06,30.68-58.21,61.92-60.52a53.8,53.8,0,0,1,40.82,14.44,52.72,52.72,0,0,1,16.72,39.59c-.24,15.8-7,30.75-19.11,42.08a68.61,68.61,0,0,1-42.87,18.21l-1,0h-.18c-25.65,1-50.07,11.05-67,27.64-9.7,9.43-19.09,19.47-28.16,29.18q-4.32,4.62-8.66,9.23c-15.76,17.14-22.94,38.61-20.22,60.46l.07.61c2.47,21.32,13.73,42.59,33.47,63.25,9.11,9.42,18,19.3,26.65,28.85,4.17,4.62,8.48,9.39,12.76,14.05,18.14,19.35,40.48,31.38,62.91,33.86l1.05.12a66.7,66.7,0,0,1,38.86,19.55c10.87,11,17.11,25,17.58,39.25.45,13.86-5.15,27.34-14.62,35.19A30.5,30.5,0,0,1,351.47,652.14ZM150,452.85a10.79,10.79,0,0,1,2.59.4,14.6,14.6,0,0,0,1.46.3c25.61,3.32,50.55,16.22,70.25,36.34,9.2,9.6,18.65,19.75,28.06,30.17,13.28,15,30.23,39.29,35.61,70.06.27,1.54.62,3.11,1,4.66,3.26,12,10.76,24,21.69,34.84,7.5,7.44,19.34,16.94,33.2,20,9.87,2.2,19,.14,26.35-6,9.1-7.53,14.47-20.52,14-33.89-.46-13.85-6.53-27.4-17.11-38.16a65.11,65.11,0,0,0-37.92-19.08l-1-.12c-22.82-2.52-45.52-14.73-63.93-34.37-4.29-4.67-8.6-9.44-12.77-14.06C243,494.47,234.05,484.6,225,475.2,205,454.27,193.55,432.68,191,411l-.07-.61c-2.78-22.33,4.55-44.26,20.65-61.76,2.9-3.08,5.77-6.16,8.65-9.24,9.09-9.72,18.49-19.78,28.21-29.23,17.23-16.87,42-27.11,68.09-28.1h.18l1,0a67,67,0,0,0,41.84-17.77c11.76-11,18.37-25.57,18.6-40.93A51.15,51.15,0,0,0,362,185a52.21,52.21,0,0,0-39.59-14c-30.49,2.25-57.6,28.75-60.42,59.05h0a49.19,49.19,0,0,0-.21,5.43c.4,26.55-10.23,53-28.42,70.83-8.29,8.17-17.7,17.43-26.64,26.79a83.69,83.69,0,0,1-68.17,24.89c-1.28-.13-2.63-.2-4.12-.24-13.27-.31-26.32,5.35-34,14.77A31.08,31.08,0,0,0,94.17,400c5.42,23.56,12.16,52.83,54.25,52.83H150Z"/><path class="cls-12" d="M130.73,293.54c-8.35,0-21-1.8-30.33-11.18-7.48-7.53-10.42-18.79-7.85-30.13,5.11-22.57,19.15-50.51,57-55.45a24,24,0,0,0,2.55-.52c.74-.17,1.49-.35,2.25-.47,25.07-3.88,49.39-16.71,68.46-36.13,9.23-9.58,18.74-19.7,28.26-30.09,15.31-16.69,26.56-35.95,32.52-55.67,1.47-4.85,1.78-9.67,2.08-14.34a65.83,65.83,0,0,1,1.89-13.79c2.94-10.54,6.27-20.61,14.45-27.89C309.15,11.56,319.25,6.12,329.76,3c11.63-3.51,22.8-3.9,31.45-1.1,17.32,5.6,25.5,24.5,24.63,40.28-.07,1.37-.2,2.76-.4,4.14-3.32,23.87,4.71,48.09,22,66.45,4.64,4.79,9.32,9.7,13.86,14.45q6.3,6.6,12.62,13.17c17.35,18.11,44.47,28.84,72.76,28.84h1.21a58.12,58.12,0,0,1,5.92.24h0c31.4,2.93,58.75,30.3,61,61a47.26,47.26,0,0,1-13,36.4c-10.63,11.17-26.76,17.61-43.15,17.26a68,68,0,0,1-43.39-17.33c-12.34-11.15-19.48-26-20.09-41.83,0-.32,0-.64,0-1v-.15a96.14,96.14,0,0,0-28.22-65.37C419.86,151.39,412.81,144.1,406,137c-5.38-5.58-10.95-11.35-16.49-16.95C373.06,103.94,351.61,96.44,329.13,99l-.63.07c-28.08,3.16-49.35,20-62.24,33.64-4,4.27-8,8.65-11.86,12.88-9,9.85-18.36,20-27.92,29.72-13.47,13.82-30.22,35.87-33.54,62.38-.05.33-.09.67-.14,1-4.23,29.1-30.07,53.15-58.83,54.76C133,293.51,131.9,293.54,130.73,293.54ZM348.51,1.61c-16.19,0-34.63,7.91-45.39,17.48-7.86,7-11.09,16.82-14,27.12a64.49,64.49,0,0,0-1.83,13.45c-.31,4.76-.63,9.68-2.15,14.71-6,20-17.4,39.42-32.87,56.3-9.53,10.39-19.05,20.53-28.3,30.12-19.32,19.68-44,32.67-69.37,36.6-.69.11-1.39.28-2.12.45s-1.78.42-2.72.55c-36.95,4.82-50.66,32.13-55.66,54.2-2.44,10.79.33,21.49,7.42,28.63,10.17,10.24,24.62,11,32.33,10.61,28-1.57,53.19-25,57.32-53.37,0-.33.09-.65.13-1,3.38-27,20.35-49.31,34-63.31,9.55-9.67,18.87-19.85,27.89-29.69,3.88-4.23,7.89-8.61,11.86-12.89,13.09-13.8,34.68-30.92,63.25-34.14l.62-.07c23-2.61,44.9,5,61.7,21.55,5.56,5.62,11.13,11.39,16.52,17C414,143,421,150.26,428.07,157.3a97.83,97.83,0,0,1,28.71,66.47v.16l0,.93c1.2,31,29,56.87,61.9,57.61,15.91.36,31.61-5.91,41.94-16.76a45,45,0,0,0,12.54-35.16c-2.15-30-28.84-56.67-59.49-59.53-1.9-.17-3.84-.25-5.75-.23-29.19.3-57.26-10.65-75.16-29.32q-6.33-6.57-12.63-13.18c-4.53-4.75-9.21-9.65-13.85-14.45C388.64,95.12,380.45,70.41,383.84,46c.18-1.33.31-2.67.39-4,.83-15.16-7-33.3-23.52-38.65A39.53,39.53,0,0,0,348.51,1.61Z"/><path class="cls-13" d="M605.55,598.38a6.39,6.39,0,0,1-4.35-1.6c-5.83-5.13-1.1-17.24,1.17-23.06l.2-.54c10.55-27.14,34.85-51.43,61.93-61.88l.6-.23c5.9-2.29,18.16-7.05,23.21-1.18,4.55,5.27-2.22,13.93-5.85,18.59-.32.4-.6.77-.85,1.09-8.23,10.81-18.13,20.69-27.7,30.25l-3.11,3.11c-9.45,9.45-19.23,19.23-29.89,27.34l-1,.8C616.34,593.83,610.49,598.38,605.55,598.38Zm-1.46-24.61-.21.53c-2,5.06-6.59,16.89-1.61,21.27,4.31,3.79,12.62-2.67,16.61-5.78l1-.81c10.58-8.05,20.31-17.78,29.72-27.2l3.11-3.1c9.54-9.53,19.4-19.37,27.56-30.09l.86-1.11c3.11-4,9.58-12.27,5.91-16.54-4.31-5-16.29-.35-21.4,1.64l-.6.23c-26.27,10.13-50.78,34.63-61,61Z"/><path class="cls-14" d="M229.7,598.48c-5,0-10.87-4.61-14.43-7.39l-1.05-.82c-10.81-8.23-20.72-18.13-30.29-27.7l-2.44-2.45c-9.67-9.65-19.67-19.64-28-30.55h0l-.84-1.08c-3.38-4.32-10.42-13.31-5.87-18.54,5.06-5.81,17.28-1,23.15,1.3l.65.25c27,10.54,51.31,34.94,61.93,62.17l.25.63c2.26,5.75,7,17.73,1.12,22.68A6.3,6.3,0,0,1,229.7,598.48Zm-74.89-69.89c8.24,10.82,18.19,20.77,27.82,30.39l2.44,2.44c9.54,9.54,19.41,19.4,30.13,27.56l1.07.83c4,3.11,12.29,9.59,16.59,5.94,4.95-4.2.37-15.88-1.58-20.86l-.25-.63c-10.46-26.83-34.41-50.86-61-61.24l-.66-.26c-5.1-2-17-6.69-21.34-1.74-3.66,4.21,2.81,12.49,5.92,16.47l.86,1.1Z"/><path class="cls-15" d="M681,145c-5.56,0-12.22-2.69-16.1-4.26l-.7-.28c-27-10.82-51.27-35.07-61.76-61.77l-.19-.49c-2.26-5.74-7-17.69-1.11-22.68,5.35-4.55,14,2.21,18.68,5.83l1.06.82c10.68,8.13,20.47,17.92,29.94,27.39l3.08,3.08c9.57,9.56,19.46,19.44,27.68,30.23l.83,1.08c3.38,4.32,10.41,13.31,5.71,18.44C686.41,144.31,683.86,145,681,145Zm-75.6-89.35a4.76,4.76,0,0,0-3.21,1.11c-5,4.23-.39,15.88,1.57,20.85l.19.49c10.33,26.3,34.21,50.19,60.85,60.85l.7.29c5.1,2.05,17,6.86,21.43,2.06,3.77-4.12-2.69-12.38-5.79-16.35l-.85-1.1c-8.15-10.7-18-20.54-27.54-30.06l-3.08-3.08c-9.43-9.43-19.18-19.19-29.77-27.25l-1.07-.83C615.71,60.19,609.89,55.66,605.43,55.66Z"/><path class="cls-16" d="M154,144.9c-2.79,0-5.31-.69-7-2.56-4.7-5.08,2.34-14.08,5.72-18.4l.83-1.06c8.29-10.89,18.26-20.86,27.91-30.5l2.48-2.47c9.58-9.58,19.49-19.49,30.31-27.73l1.07-.83c4.65-3.63,13.31-10.39,18.64-6,5.87,4.81,1.19,16.63-1.06,22.31l-.23.59c-10.57,26.78-34.8,51.14-61.75,62l-.75.31C166.25,142.18,159.57,144.9,154,144.9Zm.15-21.53.65.49c-.24.32-.53.68-.84,1.08-3.11,4-9.57,12.23-5.81,16.3,4.41,4.77,16.29-.08,21.36-2.15l.76-.31C196.84,128,220.72,104,231.13,77.64l.23-.59c1.95-4.91,6.5-16.39,1.55-20.46-4.34-3.56-12.64,2.92-16.63,6l-1.08.84c-10.73,8.17-20.6,18-30.15,27.59l-2.47,2.47c-9.61,9.6-19.55,19.53-27.77,30.33Z"/><path class="cls-17" d="M509.72,478.88a52.2,52.2,0,0,1-36.24-14.67,59.87,59.87,0,0,1-18.37-44.46c.64-33.77,29.1-61.49,63.44-61.81h1.39c28.54.2,55.43-10.78,73.8-30.08,6.71-7,13.91-13.76,20.87-20.27l5.51-5.16c17.71-17.18,25.6-39.93,22.18-64.06l0-.27-.12-.81,0-.33c-2.85-22.76-15.09-45.34-36.39-67.12-8.45-8.53-16.7-17.5-24.68-26.19-2.43-2.64-4.85-5.28-7.29-7.91C554.14,115,530.26,102,506.52,99.37l-1.15-.14h0a68.86,68.86,0,0,1-38.44-19.15c-11-10.86-17.29-24.51-17.76-38.43-.45-13.55,4.83-26.25,14.12-34,7.87-6.55,17.64-8.79,28.26-6.46C515.84,6.54,540.34,31,547.31,56.87c.27,1,.49,1.88.67,2.72,6.58,30.76,24.1,54.87,37.63,69.68,8.81,9.47,17.67,18.8,26.32,27.71,19.61,19.83,44.88,33.74,71.14,39.16l.78.19a11,11,0,0,0,1.08.23c34.66,5.07,50.82,20.64,57.61,55.53,2.33,12-.52,22.68-8,30.14-4.68,4.64-15.28,12.23-33.85,11l-1-.09c-25-2.36-48.76,5.32-66.88,21.64-9.77,9-19.1,18.25-26.94,26.08-17.89,18-28.91,44.61-30.24,73,0,.44,0,.88-.08,1.32-1.1,15.58-8.14,30.83-19.8,42.92-11.83,12.26-26.87,19.6-42.37,20.66C512.16,478.84,510.94,478.88,509.72,478.88Zm9.35-119.32h-.5c-33.48.31-61.22,27.32-61.84,60.22A58.23,58.23,0,0,0,474.6,463a50.55,50.55,0,0,0,38.67,14.11c15.09-1,29.76-8.2,41.31-20.17,11.24-11.65,18.29-26.93,19.35-41.91,0-.43.06-.86.08-1.28,1.35-28.81,12.54-55.82,30.71-74.09,7.85-7.85,17.2-17.08,27-26.13,18.46-16.64,42.64-24.47,68.07-22.07l1,.09c7.7.52,22.17-.14,32.59-10.5,7.12-7.06,9.82-17.25,7.59-28.68-3.49-17.91-9.39-30.23-18.58-38.77-8.68-8.06-20.65-13-37.68-15.47a11.82,11.82,0,0,1-1.24-.26l-.7-.17c-26.58-5.49-52.14-19.56-72-39.62-8.66-8.92-17.53-18.25-26.35-27.74-13.68-15-31.37-39.32-38-70.44-.17-.81-.38-1.67-.64-2.64C538.92,31.94,515,8,491.2,2.8c-10.11-2.22-19.4-.1-26.88,6.12-8.9,7.41-14,19.63-13.53,32.67.45,13.51,6.59,26.77,17.28,37.34a67.25,67.25,0,0,0,37.51,18.69h0l1.12.14c24.12,2.71,48.35,15.8,68.23,36.87q3.68,4,7.31,7.93c8,8.67,16.21,17.63,24.63,26.14,21.56,22,34,44.94,36.85,68.06l0,.32c0,.26.07.53.11.79l0,.27c3.49,24.66-4.56,47.9-22.67,65.46l-5.52,5.17c-7,6.5-14.13,13.22-20.81,20.21-18.52,19.46-45.56,30.59-74.26,30.59h-1.58Z"/><path class="cls-18" d="M483.69,652.12a30.73,30.73,0,0,1-20.12-7.36c-9.5-8-15-21.57-14.43-35.55.06-1.26.18-2.6.4-4.24,3.21-24.62-4.67-48.86-22.19-68.24-3.91-4.23-7.86-8.57-11.69-12.76-4.74-5.2-9.64-10.58-14.51-15.82C382.83,488.32,355,477,326.7,477.79a54.92,54.92,0,0,1-6-.17c-31.64-2.64-59.09-30.94-61.21-63.08a52.14,52.14,0,0,1,14.08-39.41A58.26,58.26,0,0,1,316.06,357h0c33.83,0,62.4,27.24,63.69,60.74l0,1.15a108.64,108.64,0,0,0,28.36,70q4.38,4.83,8.74,9.68c9.2,10.21,18.71,20.77,28.39,30.87,16.49,16.71,38.13,24.47,60.91,21.83l.63-.07c22-2.35,44.24-14.5,62.56-34.21l8.88-9.8c9.89-10.93,20.11-22.23,30.55-33,19.63-20.54,31-42,33.68-63.7,0-.34.08-.68.13-1,4.23-30,29.93-53.45,58.55-53.45h.18c14,.05,27.06,5.85,34.84,15.53,6.48,8.06,8.69,18,6.37,28.66-5.62,26-23.49,53.89-56.77,54.09a12.15,12.15,0,0,0-2.74.45,15.93,15.93,0,0,1-2,.4c-24.94,3.19-49.34,15.73-68.69,35.32-9.24,9.53-18.68,19.57-28,29.83-18.76,20.92-31.42,45.71-35.66,69.78-.21,1.24-.51,2.59-.87,4s-.74,2.91-1.11,4.4c-3.07,12.32-6.55,26.28-15.42,35.29C524,641.19,511,646.89,491.72,651.2A36.93,36.93,0,0,1,483.69,652.12Zm-154.12-176c27.74,0,54.76,11.43,72.77,30.92,4.88,5.24,9.78,10.62,14.52,15.83,3.82,4.19,7.77,8.52,11.68,12.76,17.86,19.74,25.88,44.44,22.6,69.54-.2,1.59-.32,2.89-.38,4.1-.58,13.48,4.73,26.61,13.85,34.24,7.44,6.24,16.69,8.34,26.76,6.1,19-4.24,31.67-9.8,38.74-17,8.57-8.7,12-22.43,15-34.54.37-1.49.73-3,1.11-4.42s.64-2.68.85-3.88c4.28-24.37,17.08-49.44,36-70.59,9.39-10.28,18.84-20.33,28.09-29.88,19.61-19.85,44.35-32.55,69.65-35.78a16.76,16.76,0,0,0,1.81-.38,14.13,14.13,0,0,1,3.11-.49c32.32-.19,49.71-27.41,55.2-52.81,2.21-10.2.11-19.64-6-27.31-7.48-9.3-20-14.87-33.59-14.92-27.88-.09-53,22.77-57.11,52.05,0,.34-.09.67-.13,1-2.76,22.08-14.24,43.83-34.12,64.63-10.43,10.77-20.64,22.07-30.52,33l-8.89,9.81c-18.59,20-41.16,32.33-63.57,34.72l-.63.07c-23.28,2.7-45.39-5.23-62.26-22.31-9.7-10.13-19.22-20.69-28.43-30.91q-4.37-4.85-8.74-9.68a110.25,110.25,0,0,1-28.77-71l0-1.15c-1.26-32.63-29.1-59.18-62.07-59.18h0a56.58,56.58,0,0,0-41.28,17.58,50.49,50.49,0,0,0-13.65,38.19c1,15,7.74,29.72,19,41.41s25.8,18.92,40.72,20.16h0a51.55,51.55,0,0,0,5.8.17C327.63,476.14,328.6,476.13,329.57,476.13Z"/></g><circle class="cls-19" cx="734.31" cy="239.46" r="64.48" transform="translate(-38.06 237.83) rotate(-17.94)"/><circle class="cls-20" cx="777.23" cy="141.8" r="41.06" transform="translate(-5.82 36.83) rotate(-2.7)"/><circle class="cls-21" cx="803.37" cy="188.39" r="41.06" transform="translate(295.77 838.96) rotate(-65.23)"/><circle class="cls-22" cx="762.95" cy="45.48" r="25.9" transform="translate(-0.64 78.4) rotate(-5.88)"/><ellipse class="cls-23" cx="309.4" cy="670.46" rx="27.88" ry="59.45" transform="translate(-423.92 756.9) rotate(-71.95)"/><circle class="cls-24" cx="205.46" cy="674.79" r="26.02" transform="translate(-498.13 724.99) rotate(-77.15)"/><circle class="cls-25" cx="256.74" cy="630.85" r="26.02" transform="matrix(0.01, -1, 1, 0.01, -376.38, 881.95)"/><circle class="cls-26" cx="163.03" cy="594.36" r="16.41" transform="translate(-215.04 107.63) rotate(-22.5)"/><circle class="cls-27" cx="16.41" cy="446.91" r="16.41" transform="translate(-422.75 362.49) rotate(-77.02)"/><circle class="cls-28" cx="114.83" cy="250.83" r="16.41"/></g></g></g></svg>