<svg xmlns="http://www.w3.org/2000/svg" width="19" height="19" viewBox="0 0 19 19">
  <path id="phone-icon" d="M4.339,1.577A.805.805,0,0,0,3.134,1.5L1.906,2.731a2.037,2.037,0,0,0-.534,2.1A20.862,20.862,0,0,0,6.321,12.68a20.863,20.863,0,0,0,7.847,4.949,2.037,2.037,0,0,0,2.1-.534L17.5,15.867a.805.805,0,0,0-.075-1.205l-2.739-2.13a.805.805,0,0,0-.689-.145l-2.6.65a2.072,2.072,0,0,1-1.968-.545L6.51,9.573a2.072,2.072,0,0,1-.546-1.968l.651-2.6a.805.805,0,0,0-.145-.689Zm-2.1-.97A2.072,2.072,0,0,1,5.339.8l2.13,2.738a2.071,2.071,0,0,1,.374,1.774l-.65,2.6a.805.805,0,0,0,.211.764l2.918,2.918a.805.805,0,0,0,.765.211l2.6-.65a2.072,2.072,0,0,1,1.774.374l2.738,2.13a2.072,2.072,0,0,1,.194,3.1l-1.228,1.228a3.3,3.3,0,0,1-3.416.834,22.127,22.127,0,0,1-8.324-5.249A22.127,22.127,0,0,1,.176,5.251a3.3,3.3,0,0,1,.835-3.416L2.238.607Z" transform="translate(0 0)"/>
</svg>
