<svg xmlns="http://www.w3.org/2000/svg" width="23.383" height="19" viewBox="0 0 23.383 19">
  <g id="twitter-icon" transform="translate(24)">
    <path id="twitter-icon-2" data-name="twitter-icon" d="M7.345,21A13.557,13.557,0,0,0,21,7.358c0-.2,0-.412-.009-.617a9.77,9.77,0,0,0,2.4-2.487,9.73,9.73,0,0,1-2.761.757,4.824,4.824,0,0,0,2.115-2.655,9.548,9.548,0,0,1-3.05,1.159A4.8,4.8,0,0,0,11.509,7.89a13.628,13.628,0,0,1-9.89-5.011,4.807,4.807,0,0,0,1.488,6.4,4.856,4.856,0,0,1-2.172-.6v.066a4.805,4.805,0,0,0,3.847,4.7,4.681,4.681,0,0,1-1.264.168,4.72,4.72,0,0,1-.9-.083A4.8,4.8,0,0,0,7.1,16.868,9.628,9.628,0,0,1,1.14,18.924,9.236,9.236,0,0,1,0,18.858,13.656,13.656,0,0,0,7.345,21Z" transform="translate(-24 -1.999)"/>
  </g>
</svg>
